HIERARCHY
ROOT Hips
{
  OFFSET -10.0563 7.73376 -472.55
  CHANNELS 6 Xposition Yposition Zposition Zrotation Xrotation Yrotation
  JOINT Spine
  {
    OFFSET 0 0 0
    CHANNELS 3 Zrotation Xrotation Yrotation
    JOINT Spine1
    {
      OFFSET 19 0 0
      CHANNELS 3 Zrotation Xrotation Yrotation
      JOINT Neck
      {
        OFFSET 22.5 0.6 0
        CHANNELS 3 Zrotation Xrotation Yrotation
        JOINT Head
        {
          OFFSET 14 0.0308777 0
          CHANNELS 3 Zrotation Xrotation Yrotation
          End Site
          {
            OFFSET 17 0 0
          }
        }
      }
      JOINT LeftShoulder
      {
        OFFSET 19.8 3.7 4.3
        CHANNELS 3 Zrotation Xrotation Yrotation
        JOINT LeftArm
        {
          OFFSET 8 0 0
          CHANNELS 3 Zrotation Xrotation Yrotation
          JOINT LeftForeArm
          {
            OFFSET 15.2 0 0
            CHANNELS 3 Zrotation Xrotation Yrotation
            JOINT LeftHand
            {
              OFFSET 17.8 0 0
              CHANNELS 3 Zrotation Xrotation Yrotation
              End Site
              {
                OFFSET 7.2 0 0
              }
            }
          }
        }
      }
      JOINT RightShoulder
      {
        OFFSET 19.8 3.7 -4.3
        CHANNELS 3 Zrotation Xrotation Yrotation
        JOINT RightArm
        {
          OFFSET 8 0 0.151654
          CHANNELS 3 Zrotation Xrotation Yrotation
          JOINT RightForeArm
          {
            OFFSET 15.2 0 0
            CHANNELS 3 Zrotation Xrotation Yrotation
            JOINT RightHand
            {
              OFFSET 17.8 0 0
              CHANNELS 3 Zrotation Xrotation Yrotation
              End Site
              {
                OFFSET 7.2 0 0
              }
            }
          }
        }
      }
    }
  }
  JOINT LeftUpLeg
  {
    OFFSET 5.98425 -7.666 4.78879
    CHANNELS 3 Zrotation Xrotation Yrotation
    JOINT LeftLeg
    {
      OFFSET 16 0 0
      CHANNELS 3 Zrotation Xrotation Yrotation
      JOINT LeftFoot
      {
        OFFSET 18 0 0
        CHANNELS 3 Zrotation Xrotation Yrotation
        End Site
        {
          OFFSET 0 -10.8 0
        }
      }
    }
  }
  JOINT RightUpLeg
  {
    OFFSET 5.98425 -7.66598 -4.78879
    CHANNELS 3 Zrotation Xrotation Yrotation
    JOINT RightLeg
    {
      OFFSET 16 0 0
      CHANNELS 3 Zrotation Xrotation Yrotation
      JOINT RightFoot
      {
        OFFSET 18 0 0
        CHANNELS 3 Zrotation Xrotation Yrotation
        End Site
        {
          OFFSET 0 -10.8 0
        }
      }
    }
  }
  JOINT Tail
  {
    OFFSET 6.83696 -0.722574 0
    CHANNELS 3 Zrotation Xrotation Yrotation
    JOINT Tail1
    {
      OFFSET 12 0 0
      CHANNELS 3 Zrotation Xrotation Yrotation
      End Site
      {
        OFFSET 12 0 0
      }
    }
  }
}
MOTION
Frames:	21
Frame Time:	0.0166667
28.8328 46.7057 -41.68 -1.502 0.590423 90.3117 -179.667 -0.49572 -12.0722 2.76974 -3.70176 26.089 -5.09136 -6.60528 21.4212 -102.773 60.0401 131.915 -111.779 -38.3357 -138.374 133.638 -19.1889 -118.846 -51.2803 13.5672 -5.48522 -11.3312 1.51953 -10.5222 79.0521 -22.763 39.2533 27.6324 -45.4375 -43.3758 -52.8843 -16.2036 -1.39182 -16.3903 0.456768 3.41151 -132.904 -6.69435 -13.1438 75.4162 8.85832 7.03531 44.2146 -3.01341 -5.37257 -109.206 -2.86051 -5.00339 73.2654 -1.49949 -0.170895 55.9806 0.606472 -2.07266 -48.8934 60.7792 -15.6914 -6.53807 -45.6677 -7.22888 
28.9318 46.6729 -41.5495 -1.58332 0.786748 90.4005 -179.961 -0.586571 -12.0295 2.95031 -3.80218 26.1601 -5.04545 -6.69363 21.8915 -102.734 59.9404 131.92 -111.771 -38.342 -138.344 132.972 -19.1988 -118.454 -51.4424 13.519 -5.87098 -11.3532 1.67284 -11.0465 79.0031 -22.7479 38.9615 27.4789 -45.5747 -43.0998 -52.8302 -16.043 -1.66777 -16.3673 0.49434 3.31408 -133.046 -6.78062 -13.0498 75.5621 8.6297 6.97035 44.1322 -2.98711 -5.33409 -109.345 -2.91708 -5.0331 73.2813 -1.45862 -0.160183 56.1592 0.603428 -2.08054 -49.4658 61.1619 -15.5725 -6.92269 -46.2782 -7.52118 
29.0246 46.6931 -41.4234 -1.59977 0.797318 90.432 -179.897 -0.620593 -12.3873 2.91445 -3.90356 26.745 -4.97239 -6.80001 22.1542 -102.787 59.795 131.733 -111.75 -38.2577 -138.446 133.166 -18.8944 -118.206 -50.499 14.1948 -6.33161 -11.8688 1.65843 -10.954 79.0826 -22.7083 39.2083 27.4484 -45.3467 -43.325 -52.5944 -16.342 -1.63414 -16.4992 0.657548 2.74641 -132.912 -6.91484 -12.9781 75.563 8.5891 6.96719 44.3217 -3.00175 -5.34711 -109.203 -2.57367 -4.27671 73.1458 -2.25851 -0.475032 56.4338 0.750792 -1.95053 -50.0973 61.5072 -15.1253 -7.45714 -47.1535 -7.86356 
29.0946 46.6795 -41.3288 -1.73257 0.835713 90.4622 -179.864 -0.656858 -12.6548 2.82382 -4.00579 27.1644 -4.90559 -6.92247 22.4303 -102.538 59.5673 131.736 -111.738 -38.2411 -138.447 134.403 -19.9105 -118.773 -50.497 13.7853 -6.19898 -11.2735 1.88411 -11.9143 79.1552 -22.6623 39.4005 26.3402 -46.031 -43.4201 -52.561 -15.7791 -2.04062 -16.2461 0.559587 3.06114 -132.801 -6.94913 -13.1104 75.6199 8.58171 7.02802 44.0392 -2.98143 -5.3268 -109.27 -3.15096 -5.34021 73.3115 -1.11125 0.0205754 56.2485 0.549984 -2.13531 -50.6658 61.7106 -14.7082 -7.9336 -48.5428 -8.00914 
29.1957 46.706 -41.2408 -1.79135 0.843288 90.4711 -179.891 -0.746131 -12.9195 2.98856 -4.1123 27.617 -4.98529 -7.04516 22.6989 -102.266 59.5566 131.755 -111.75 -38.334 -138.305 134.637 -20.1404 -118.738 -50.1734 14.0951 -6.47311 -11.2482 1.89621 -11.9832 79.0279 -22.8159 39.3224 26.315 -45.8848 -43.66 -52.3913 -15.6743 -1.88457 -16.0328 0.637635 2.71205 -132.503 -7.07852 -13.1815 75.418 8.65146 7.13429 43.9432 -2.99694 -5.34789 -109.138 -3.18482 -5.37865 73.1326 -1.09629 0.0743615 56.6908 0.566282 -2.14427 -51.455 61.8686 -13.9133 -8.43228 -50.2409 -8.13135 
29.3265 46.7421 -41.1516 -1.94642 0.833868 90.4598 -179.676 -0.760217 -13.0775 2.70653 -4.21585 27.9615 -4.883 -7.05818 22.8126 -102.265 59.4692 131.788 -111.641 -38.2176 -138.249 134.919 -20.3113 -118.193 -49.2447 15.4277 -7.68458 -11.6646 1.78514 -11.5003 79.0279 -22.8193 39.3346 26.3936 -45.816 -43.8024 -52.2472 -15.921 -1.77278 -15.8571 0.795051 2.13763 -132.102 -6.9478 -13.1782 75.1296 8.95099 7.13453 43.9025 -3.01957 -5.38381 -109.082 -3.10306 -5.30018 73.0617 -0.90801 0.0313893 56.6374 0.53023 -2.1717 -52.2199 61.8137 -12.978 -8.8552 -52.0695 -8.21778 
29.4418 46.7316 -41.0485 -2.22055 0.806813 90.4548 -179.487 -0.69861 -13.2415 2.44393 -4.24492 28.334 -5.0811 -7.08066 22.9248 -101.854 59.7169 132.098 -111.603 -38.1761 -138.23 135.523 -21.0337 -118.568 -49.3075 15.0759 -7.45638 -11.256 1.95183 -12.2563 79.0463 -22.8594 39.5652 25.9535 -46.1279 -44.0442 -52.2166 -15.946 -1.933 -15.6432 0.876584 1.83038 -131.959 -6.75211 -13.3276 75.3315 9.10575 7.08635 43.7573 -3.02915 -5.40909 -109.03 -2.88894 -5.09337 73.0518 -1.38876 -0.152418 56.9326 0.610151 -2.10145 -52.801 61.6089 -12.1508 -9.28049 -54.059 -8.25821 
29.5448 46.7486 -40.9535 -2.52567 0.823217 90.4333 -179.276 -0.665901 -13.3975 2.12832 -4.30999 28.6625 -5.15731 -7.07379 23.1564 -101.614 60.0281 132.304 -111.575 -38.1458 -138.217 135.471 -21.4708 -118.918 -49.3687 14.9794 -7.22628 -11.3361 2.04024 -12.6332 79.0669 -22.9058 39.8278 25.3247 -46.3766 -44.6218 -52.0058 -15.9327 -2.02836 -15.5932 0.974569 1.494 -131.834 -6.78138 -13.6321 75.3304 9.04143 7.18784 43.6177 -3.01197 -5.38426 -108.931 -3.07123 -5.59368 72.8594 -1.24126 0.0653567 57.2053 0.604556 -2.13017 -53.3511 61.2957 -11.3367 -9.48439 -55.9143 -8.15295 
29.6709 46.7842 -40.8812 -2.84312 0.852131 90.372 -179.157 -0.605269 -13.5567 1.96266 -4.31826 28.987 -5.29986 -7.0134 23.2052 -101.652 60.0844 132.533 -111.536 -38.1219 -138.164 135.89 -21.9773 -119.168 -49.1841 15.2526 -7.32359 -11.2455 2.07078 -12.8315 78.9716 -23.0966 40.0292 24.5711 -46.5551 -45.2663 -51.6859 -15.8225 -2.08258 -15.314 1.00644 1.31216 -131.698 -6.88197 -13.9621 75.197 8.8749 7.3346 43.5712 -3.00739 -5.37177 -108.884 -3.02386 -5.63336 72.6443 -1.5124 0.0329006 57.6056 0.668925 -2.0839 -54.0248 60.9045 -10.3515 -9.65128 -57.8106 -8.03544 
29.7996 46.7745 -40.7955 -3.08753 0.908635 90.3422 -179.05 -0.572559 -13.5695 1.68099 -4.36399 29.0931 -5.48282 -7.00479 23.3812 -101.492 60.2204 132.797 -111.495 -38.1156 -138.072 135.846 -22.356 -119.101 -49.1008 15.4906 -7.48784 -11.2741 2.05838 -12.797 78.9367 -23.1552 40.0634 24.4363 -46.831 -45.3257 -51.6635 -15.7853 -2.16369 -15.106 1.06798 1.08563 -131.768 -6.90826 -14.2153 75.3204 8.91257 7.46084 43.6816 -3.03008 -5.40538 -108.916 -3.12081 -5.84387 72.5948 -1.67377 0.091523 57.8205 0.699292 -2.05921 -54.7182 60.4942 -9.29199 -9.70739 -59.5159 -7.84283 
29.9121 46.7752 -40.7177 -3.27578 0.950584 90.3793 -178.906 -0.560113 -13.4404 1.35686 -4.43007 29.0732 -5.63936 -7.0041 23.5979 -101.269 60.3882 133.088 -111.481 -38.1067 -138.054 135.872 -22.8083 -119.051 -49.1291 15.4487 -7.66979 -11.0125 2.09026 -12.9735 78.8712 -23.2387 40.0362 24.3474 -47.1293 -45.3439 -51.5723 -15.7547 -2.25583 -15.0622 1.07881 1.06358 -131.716 -6.95193 -14.3037 75.3293 8.8554 7.49181 43.5833 -3.02531 -5.39987 -108.959 -3.14984 -5.8965 72.5491 -1.96817 0.0916012 58.1323 0.757315 -2.02115 -55.2597 60.1385 -8.36921 -9.67801 -60.9645 -7.58691 
30.0033 46.7731 -40.6465 -3.44505 1.02903 90.3543 -178.816 -0.557085 -13.4859 1.09092 -4.50954 29.2196 -5.66852 -7.00972 23.8323 -101.263 60.5484 133.127 -111.438 -38.0631 -138.026 136.043 -23.1665 -119.212 -49.0334 15.6862 -7.65924 -10.9991 2.09442 -13.0593 78.8484 -23.3142 40.1852 23.7183 -47.4817 -45.7684 -51.3401 -15.6777 -2.36417 -15.0552 1.07654 1.09126 -131.713 -6.97302 -14.4909 75.3328 9.05061 7.56017 43.553 -3.04177 -5.41867 -109 -3.16126 -5.83943 72.4802 -2.21319 0.0677084 58.3706 0.80112 -1.99269 -55.7741 59.657 -7.43981 -9.51652 -62.1072 -7.23866 
30.0917 46.7621 -40.5901 -3.65682 1.12832 90.3159 -178.744 -0.530652 -13.5215 0.817919 -4.56239 29.3233 -5.83829 -6.95395 23.9651 -101.27 60.7687 133.343 -111.421 -38.0621 -137.986 135.989 -23.5808 -119.245 -49.1496 15.7618 -7.73564 -10.8097 2.08993 -13.1263 78.8473 -23.3536 40.3138 23.3162 -47.7233 -46.1858 -51.1652 -15.851 -2.35725 -14.9999 1.1191 0.972508 -131.795 -6.94862 -14.6708 75.4324 9.04307 7.59818 43.4978 -3.03846 -5.41594 -109.065 -3.16908 -5.9734 72.4368 -2.19033 0.0973233 58.4476 0.798963 -1.99623 -56.1178 59.0892 -6.68719 -9.45143 -62.9184 -7.01793 
30.1765 46.7455 -40.534 -3.68996 1.17483 90.3304 -178.606 -0.575697 -13.4189 0.517568 -4.67964 29.2977 -6.05981 -7.01133 24.188 -100.914 61.1876 133.475 -111.43 -38.0967 -137.944 135.882 -23.8879 -119.153 -49.1176 15.9627 -7.86662 -10.8066 2.07057 -13.0695 78.8464 -23.3422 40.2705 23.312 -47.9281 -46.1732 -51.1186 -15.9568 -2.42693 -14.9457 1.15209 0.894679 -131.741 -7.02764 -14.5841 75.4753 8.94901 7.59199 43.3383 -3.02966 -5.40822 -109.104 -3.31766 -6.10344 72.4957 -2.14411 0.187651 58.4692 0.791316 -2.00767 -56.5399 58.6402 -5.75364 -9.33683 -63.5883 -6.76837 
30.2664 46.7213 -40.4814 -3.71295 1.28836 90.2825 -178.489 -0.636082 -13.3425 0.132375 -4.82739 29.2371 -6.12046 -7.05007 24.3108 -100.849 61.193 133.498 -111.442 -38.063 -138.036 135.639 -24.1699 -119.199 -49.2461 15.957 -7.92647 -10.7571 2.12472 -13.3151 78.8585 -23.2758 40.1024 23.5168 -48.176 -46.0514 -51.1035 -15.9191 -2.38267 -14.9817 1.10955 1.03858 -131.731 -7.13616 -14.5212 75.4445 8.94003 7.62508 43.2178 -3.04027 -5.42218 -109.207 -3.11214 -5.49827 72.504 -2.66865 -0.0802648 58.5816 0.872398 -1.92925 -56.9741 58.1809 -4.92631 -9.15245 -64.0445 -6.48775 
30.3399 46.6983 -40.445 -3.7869 1.42221 90.2053 -178.446 -0.678279 -13.3527 -0.161793 -4.94983 29.2684 -6.27995 -7.13533 24.4332 -100.437 61.3404 133.64 -111.407 -37.9739 -138.115 135.482 -24.548 -119.479 -49.582 15.9064 -7.79407 -10.6092 2.18545 -13.6528 78.8775 -23.2048 39.9504 23.6019 -48.3604 -46.0835 -51.0711 -15.8207 -2.3153 -14.939 1.0452 1.24065 -131.819 -7.16616 -14.5463 75.4682 9.04708 7.63985 43.1745 -3.04565 -5.42551 -109.349 -3.08217 -5.30885 72.5211 -2.90079 -0.138559 58.6962 0.912632 -1.90244 -57.2165 57.6957 -4.38223 -8.9143 -64.2903 -6.16521 
30.4115 46.6796 -40.4202 -3.88534 1.51189 90.0838 -178.476 -0.676474 -13.4149 -0.292564 -4.98352 29.2895 -6.47166 -7.10755 24.4368 -100.574 61.3102 133.745 -111.428 -37.9998 -138.117 135.427 -24.6033 -119.393 -49.4402 15.8666 -7.888 -10.4697 2.14716 -13.5313 78.9117 -23.1355 39.8754 23.7928 -48.3357 -46.1416 -50.9765 -15.9704 -2.1936 -15.0286 1.04478 1.25381 -131.895 -7.15914 -14.5936 75.5631 9.10989 7.64425 43.1203 -3.04137 -5.42177 -109.422 -3.1915 -5.49009 72.5437 -2.72096 -0.0358252 58.6262 0.88369 -1.92844 -57.3607 57.1782 -3.9225 -8.66663 -64.4834 -5.82578 
30.4807 46.6578 -40.3951 -3.88531 1.57838 89.9659 -178.454 -0.706128 -13.471 -0.472789 -5.05281 29.2889 -6.59982 -7.20881 24.5209 -100.434 61.2063 133.708 -111.47 -38.0452 -138.139 135.237 -24.6662 -119.17 -49.3742 15.9434 -8.08649 -10.4829 2.13085 -13.464 78.9797 -23.0356 39.8573 24.092 -48.299 -46.0642 -50.9856 -16.0975 -2.11946 -15.0784 1.08458 1.11963 -131.925 -7.2263 -14.4864 75.656 8.99226 7.60214 43.0051 -3.02305 -5.39781 -109.529 -3.24335 -5.43389 72.6345 -2.61407 -0.0217385 58.5413 0.863451 -1.94346 -57.4678 56.7444 -3.5072 -8.38314 -64.4689 -5.48223 
30.5222 46.6386 -40.3711 -3.84694 1.59129 89.8917 -178.399 -0.75291 -13.51 -0.588915 -5.13046 29.3345 -6.71828 -7.31489 24.5765 -100.23 61.2058 133.633 -111.491 -38.0579 -138.168 135.028 -24.6896 -119.125 -49.4573 15.8294 -8.13424 -10.4567 2.14613 -13.5151 78.9764 -23.0108 39.7552 24.3504 -48.3613 -45.9687 -51.0516 -15.95 -1.99503 -15.0516 0.962141 1.47078 -131.914 -7.32243 -14.4319 75.6871 9.05795 7.61535 42.998 -3.02887 -5.40379 -109.562 -3.27543 -5.23774 72.6891 -2.64243 -0.0523235 58.5744 0.863988 -1.94453 -57.4189 56.4404 -3.29241 -8.07086 -64.3391 -5.11807 
30.5591 46.6524 -40.3613 -3.82994 1.61813 89.8198 -178.342 -0.775891 -13.5893 -0.699684 -5.19087 29.4445 -6.9537 -7.33086 24.467 -100.109 61.0469 133.843 -111.493 -38.0297 -138.225 134.991 -24.6943 -119.2 -49.4887 15.7071 -8.098 -10.3686 2.14935 -13.5439 78.9967 -22.9659 39.6971 24.3955 -48.3045 -45.9145 -50.9347 -16.2846 -1.98829 -15.1348 1.07765 1.15532 -131.89 -7.41286 -14.3964 75.6009 9.11249 7.63016 43.0979 -3.02955 -5.39772 -109.591 -3.38859 -5.22714 72.6357 -2.61816 0.0142699 58.7367 0.866511 -1.95782 -57.2608 56.1954 -3.30127 -7.78752 -64.0641 -4.81258 
30.6179 46.6558 -40.3551 -3.83476 1.59927 89.7565 -178.249 -0.765494 -13.607 -0.848901 -5.21745 29.4938 -7.00742 -7.3855 24.5072 -99.9809 61.2029 133.743 -111.477 -38.0295 -138.187 135.34 -25.0118 -119.412 -49.5297 15.5559 -7.80846 -10.1302 2.1675 -13.7432 79.089 -22.8689 39.8062 24.2736 -48.3317 -46.0433 -50.8171 -16.2368 -1.93227 -15.0966 1.0662 1.184 -131.907 -7.44245 -14.2925 75.7098 9.00141 7.57171 43.1731 -3.01491 -5.37961 -109.77 -3.45679 -5.31203 72.8038 -2.45241 0.0943027 59.1191 0.853858 -2.00618 -56.9851 55.9703 -3.42473 -7.50078 -63.6568 -4.55727 
